<?xml version="1.0" encoding="iso-8859-1"?>
<!-- Uploaded to: SVG Repo, www.svgrepo.com, Generator: SVG Repo Mixer Tools -->
<svg height="800px" width="800px" version="1.1" id="Layer_1" xmlns="http://www.w3.org/2000/svg" xmlns:xlink="http://www.w3.org/1999/xlink" 
	 viewBox="0 0 392.707 392.707" xml:space="preserve">
<path style="fill:#56ACE0;" d="M21.841,129.919v92.832c0,5.56,4.331,10.15,9.632,10.15h84.428V119.77H31.602
	C26.237,119.705,21.841,124.295,21.841,129.919z"/>
<path style="fill:#FFFFFF;" d="M137.816,232.837h18.747c65.228,0,126.578,28.186,169.697,76.735V42.97
	c-43.055,48.549-104.469,76.735-169.697,76.735h-18.747"/>
<path style="fill:#FFC10D;" d="M304.475,260.117c-41.503-30.901-91.927-48.42-144.808-49.067v-69.43
	c52.881-0.646,103.305-18.166,144.808-49.067V260.117z"/>
<g>
	<path style="fill:#194F82;" d="M85.776,187.584H52.16c-6.012,0-10.925,4.848-10.925,10.925c0,6.077,4.848,10.925,10.925,10.925
		h33.616c6.012,0,10.925-4.848,10.925-10.925C96.637,192.433,91.788,187.584,85.776,187.584z"/>
	<path style="fill:#194F82;" d="M85.776,143.237H52.16c-6.012,0-10.925,4.848-10.925,10.925c0,6.012,4.848,10.925,10.925,10.925
		h33.616c6.012,0,10.925-4.848,10.925-10.925C96.637,148.085,91.788,143.237,85.776,143.237z"/>
</g>
<path style="fill:#FFC10D;" d="M133.162,351.915c-2.521-23.079-5.818-64.065-1.875-97.358H98.576
	c-3.297,24.954-2.521,61.996,2.263,101.56c1.034,8.339,7.952,14.61,16.097,14.61C126.18,370.792,133.938,363.035,133.162,351.915z"
	/>
<path style="fill:#56ACE0;" d="M348.111,143.625v65.293c13.188-4.655,22.691-17.519,22.691-32.711S361.299,148.344,348.111,143.625z
	"/>
<g>
	<path style="fill:#194F82;" d="M175.441,282.679c-6.012,0.065-10.925,4.913-10.796,10.99c0.065,8.275,0.388,16.937,0.905,25.859
		c0.323,5.818,5.495,10.279,11.184,10.279c0.259,0-0.259,0,0,0c6.012-0.388,10.925-5.495,10.602-11.507
		c-0.517-8.598-0.776-16.937-0.84-24.824C186.43,287.463,181.388,282.614,175.441,282.679z"/>
	<path style="fill:#194F82;" d="M348.111,121.063V10.905c0-10.796-14.093-14.998-20.04-6.012l0,0
		C289.542,63.14,225.348,97.919,156.628,97.919H31.602c-17.39,0-31.547,14.352-31.547,32v92.832
		c0,17.648,14.158,31.935,31.547,31.935H76.79c-4.396,37.172,0.129,84.17,2.521,104.145c2.327,19.265,18.554,33.875,37.818,33.875
		c24.242,0,39.887-21.786,37.818-42.99c-4.202-37.624-4.59-71.37-1.487-94.966h3.168c68.784,0,132.913,34.78,171.442,93.026l0,0
		c5.947,9.051,20.04,4.784,20.04-6.012V231.544c25.341-5.172,44.541-27.992,44.541-55.273S373.453,126.235,348.111,121.063z
		 M31.602,232.837c-5.301,0-9.632-4.59-9.632-10.15v-92.768c0-5.56,4.331-10.15,9.632-10.15h84.428v113.067L31.602,232.837
		L31.602,232.837z M117.065,370.792c-8.21,0-15.063-6.271-16.097-14.61c-4.784-39.564-5.56-76.606-2.263-101.56h32.711
		c-3.943,33.293-0.711,74.279,1.875,97.358C133.938,363.035,126.18,370.792,117.065,370.792z M326.325,309.572
		c-43.055-48.549-104.469-76.735-169.697-76.735h-18.747v-24.566h22.432c6.012,0,10.925-4.848,10.925-10.925
		s-4.848-10.925-10.925-10.925h-22.432v-20.299h43.055c6.012,0,10.925-4.848,10.925-10.925c0-6.012-4.848-10.925-10.925-10.925
		h-43.055v-24.566h18.747c65.228,0,126.578-28.186,169.697-76.735V309.572z M348.111,208.982v-65.293
		c13.188,4.655,22.691,17.519,22.691,32.711C370.802,191.528,361.299,204.263,348.111,208.982z"/>
</g>
</svg>